<?xml version="1.0" encoding="UTF-8" standalone="no"?>
<svg
   xmlns:dc="http://purl.org/dc/elements/1.1/"
   xmlns:cc="http://creativecommons.org/ns#"
   xmlns:rdf="http://www.w3.org/1999/02/22-rdf-syntax-ns#"
   xmlns:svg="http://www.w3.org/2000/svg"
   xmlns="http://www.w3.org/2000/svg"
   xmlns:sodipodi="http://sodipodi.sourceforge.net/DTD/sodipodi-0.dtd"
   xmlns:inkscape="http://www.inkscape.org/namespaces/inkscape"
   version="1.1"
   x="0px"
   y="0px"
   viewBox="0 0 100 125"
   enable-background="new 0 0 100 100"
   xml:space="preserve"
   id="svg835"
   sodipodi:docname="icon-light.svg"
   inkscape:version="1.0beta2 (2b71d25, 2019-12-03)"><metadata
     id="metadata841"><rdf:RDF><cc:Work
         rdf:about=""><dc:format>image/svg+xml</dc:format><dc:type
           rdf:resource="http://purl.org/dc/dcmitype/StillImage" /></cc:Work></rdf:RDF></metadata><defs
     id="defs839" /><sodipodi:namedview
     pagecolor="#ffffff"
     bordercolor="#666666"
     inkscape:document-rotation="0"
     borderopacity="1"
     objecttolerance="10"
     gridtolerance="10"
     guidetolerance="10"
     inkscape:pageopacity="0"
     inkscape:pageshadow="2"
     inkscape:window-width="1680"
     inkscape:window-height="1005"
     id="namedview837"
     showgrid="false"
     inkscape:zoom="5.376"
     inkscape:cx="50"
     inkscape:cy="62.5"
     inkscape:window-x="0"
     inkscape:window-y="23"
     inkscape:window-maximized="0"
     inkscape:current-layer="svg835" /><path
     d="M76.844,50.149C76.844,40.111,85,31.971,95,31.945v-11.51C95,16.432,91.905,13,87.902,13H12.321  c-0.55,0-1.085,0.176-1.601,0.291c-0.092,3.005-2.532,5.479-5.539,5.565C5.075,19.346,5,19.911,5,20.435v5.65  c4,0,5.689,2.546,5.689,5.689c0,3.141-1.689,5.689-5.689,5.689v7.168c4,0,5.689,2.546,5.689,5.689c0,3.141-1.689,5.689-5.689,5.689  v7.168c4,0,5.689,2.546,5.689,5.689c0,3.141-1.689,5.689-5.689,5.689v5.342c0,0.632,0.1,1.246,0.254,1.832  c2.895,0.118,5.24,2.307,5.446,5.18C11.219,87.027,11.767,87,12.321,87h75.581C91.905,87,95,83.899,95,79.896V68.353  C85,68.326,76.844,60.187,76.844,50.149z M59.611,45.15L44.215,61.684c-0.921,0.921-2.129,1.382-3.337,1.382  c-1.19,0-2.379-0.448-3.295-1.342c-0.014-0.014-0.028-0.026-0.042-0.04l-6.355-6.355c-1.843-1.843-1.843-4.831,0-6.674  c1.843-1.843,4.831-1.843,6.674,0l3.018,3.018l13.197-12.059c1.843-1.843,4.831-2.981,6.674-1.138  C62.592,40.319,61.454,43.307,59.611,45.15z"
     id="path833"
     style="fill:#f9f9fa;fill-opacity:0.80000001" /></svg>
