<svg viewBox="0 0 100 125" xmlns="http://www.w3.org/2000/svg"><path d="m76.844 50.149c0-10.038 8.156-18.178 18.156-18.204v-11.51c0-4.003-3.095-7.435-7.098-7.435h-75.581c-.55 0-1.085.176-1.601.291-.092 3.005-2.532 5.479-5.539 5.565-.106.49-.181 1.055-.181 1.579v5.65c4 0 5.689 2.546 5.689 5.689 0 3.141-1.689 5.689-5.689 5.689v7.168c4 0 5.689 2.546 5.689 5.689 0 3.141-1.689 5.689-5.689 5.689v7.168c4 0 5.689 2.546 5.689 5.689 0 3.141-1.689 5.689-5.689 5.689v5.342c0 .632.1 1.246.254 1.832 2.895.118 5.24 2.307 5.446 5.18.519.118 1.067.091 1.621.091h75.581c4.003 0 7.098-3.101 7.098-7.104v-11.543c-10-.027-18.156-8.166-18.156-18.204zm-17.233-4.999-15.396 16.534c-.921.921-2.129 1.382-3.337 1.382-1.19 0-2.379-.448-3.295-1.342-.014-.014-.028-.026-.042-.04l-6.355-6.355c-1.843-1.843-1.843-4.831 0-6.674s4.831-1.843 6.674 0l3.018 3.018 13.197-12.059c1.843-1.843 4.831-2.981 6.674-1.138s.705 4.831-1.138 6.674z" fill="#f9f9fa" fill-opacity=".8"/></svg>
